<?xml version="1.0" encoding="UTF-8"?>
<svg width="32px" height="32px" viewBox="0 0 32 32" version="1.1" xmlns="http://www.w3.org/2000/svg" xmlns:xlink="http://www.w3.org/1999/xlink">
    <!-- Generator: Sketch 50.2 (55047) - http://www.bohemiancoding.com/sketch -->
    <title>icons/twitter</title>
    <desc>Created with Sketch.</desc>
    <defs>
        <path d="M27.7602103,10.7615982 C27.7602103,10.499247 27.7548947,10.2381951 27.7428462,9.97832442 C28.9257301,9.12323185 29.9541092,8.05622656 30.7653781,6.84133125 C29.6797094,7.32362756 28.5114727,7.648584 27.2859463,7.79517467 C28.536751,7.04521159 29.4972093,5.85831143 29.950093,4.44367008 C28.7792576,5.13764286 27.4830936,5.64250066 26.1030623,5.91430175 C24.9974308,4.73661518 23.422969,4 21.6805363,4 C18.3344653,4 15.6209432,6.71352213 15.6209432,10.0582937 C15.6209432,10.533857 15.6742167,10.9960724 15.778165,11.4397425 C10.7429348,11.1866048 6.27776629,8.77559578 3.2899625,5.1096477 C2.76915808,6.00478398 2.46936184,7.04521159 2.46936184,8.15485929 C2.46936184,10.2568585 3.53908396,12.1124531 5.16551989,13.1980037 C4.17175088,13.1674099 3.23798836,12.8943094 2.42140389,12.4401264 C2.42010454,12.4654047 2.42010454,12.490683 2.42010454,12.5172607 C2.42010454,15.4519092 4.50887399,17.9015445 7.28086702,18.457077 C6.77199303,18.5955172 6.23654136,18.670171 5.6837256,18.670171 C5.29344713,18.670171 4.91379972,18.6315448 4.54478339,18.5609072 C5.31600862,20.9680182 7.5526681,22.7196645 10.2047663,22.76904 C8.13076219,24.3940584 5.51858961,25.3625491 2.67985707,25.3625491 C2.19106399,25.3625491 1.70876768,25.3345539 1.23462186,25.2785636 C3.91601453,26.9970174 7.0996663,28 10.5218085,28 C21.665889,28 27.7602103,18.7673862 27.7602103,10.7615982 Z" id="twitter-path-1"></path>
    </defs>
    <g id="icons/twitter" stroke="none" stroke-width="1" fill="none" fill-rule="evenodd">
        <rect id="32x32-rectangle-to-keep-AR" x="0" y="0" width="32" height="32"></rect>
        <mask id="twitter-mask-2" fill="white">
            <use xlink:href="#twitter-path-1"></use>
        </mask>
        <g id="Mask"></g>
        <g id="colours/furniture/dark-grey" mask="url(#twitter-mask-2)" fill="#FFFFFF">
            <rect id="Rectangle" x="0" y="0" width="32" height="32"></rect>
        </g>
    </g>
</svg>