<svg xmlns="http://www.w3.org/2000/svg" xmlns:xlink="http://www.w3.org/1999/xlink" width="18" height="18" viewBox="0 0 18 18">
  <defs>
    <circle id="question-a" cx="9" cy="9" r="9"/>
    <path id="question-c" d="M2.39016393,7.62786885 L2.39016393,7.06721311 C2.39016393,6.83114636 2.40737688,6.61967307 2.44180328,6.43278689 C2.47622968,6.2459007 2.5303275,6.0688533 2.60409836,5.90163934 C2.67786922,5.73442539 2.77622889,5.57213193 2.89918033,5.4147541 C3.02213176,5.25737626 3.17704825,5.09016482 3.36393443,4.91311475 L4.02786885,4.27868852 C4.21475503,4.11147457 4.3745895,3.9245912 4.50737705,3.71803279 C4.6401646,3.51147438 4.70655738,3.26065721 4.70655738,2.96557377 C4.70655738,2.5819653 4.58606678,2.25983737 4.34508197,1.99918033 C4.10409716,1.73852329 3.7622973,1.60819672 3.31967213,1.60819672 C3.09344149,1.60819672 2.88934517,1.64999958 2.70737705,1.73360656 C2.52540893,1.81721353 2.36803345,1.93032716 2.2352459,2.07295082 C2.10245835,2.21557448 2.00163969,2.38032693 1.93278689,2.56721311 C1.86393408,2.7540993 1.82459021,2.94590066 1.8147541,3.14262295 L0,2.98032787 C0.0590166885,2.50819436 0.18442527,2.08770676 0.376229508,1.71885246 C0.568033746,1.34999816 0.816391918,1.0377062 1.12131148,0.781967213 C1.42623103,0.52622823 1.77540787,0.331967877 2.16885246,0.199180328 C2.56229705,0.0663927787 2.98524364,0 3.43770492,0 C3.86065785,0 4.26147352,0.0614747951 4.64016393,0.18442623 C5.01885435,0.307377664 5.35327724,0.489343057 5.64344262,0.730327869 C5.93360801,0.97131268 6.16229425,1.26885069 6.3295082,1.62295082 C6.49672215,1.97705095 6.58032787,2.38524359 6.58032787,2.84754098 C6.58032787,3.16229666 6.54590198,3.43770374 6.47704918,3.67377049 C6.40819638,3.90983725 6.3098367,4.12622852 6.18196721,4.32295082 C6.05409772,4.51967311 5.89918124,4.70901548 5.71721311,4.89098361 C5.53524499,5.07295173 5.33114867,5.2622941 5.10491803,5.45901639 C4.90819574,5.62623034 4.74836127,5.77376985 4.62540984,5.90163934 C4.5024584,6.02950884 4.40409873,6.15737641 4.33032787,6.2852459 C4.25655701,6.41311539 4.20491818,6.55081893 4.17540984,6.69836066 C4.14590149,6.84590238 4.13114754,7.02786777 4.13114754,7.2442623 L4.13114754,7.62786885 L2.39016393,7.62786885 Z M2.09508197,9.67868852 C2.09508197,9.36393285 2.21065458,9.09344375 2.44180328,8.86721311 C2.67295198,8.64098248 2.95081805,8.52786885 3.27540984,8.52786885 C3.59016551,8.52786885 3.86557259,8.63606449 4.10163934,8.85245902 C4.3377061,9.06885354 4.4557377,9.33442466 4.4557377,9.64918033 C4.4557377,9.963936 4.34016509,10.2344251 4.10901639,10.4606557 C3.8778677,10.6868864 3.60000162,10.8 3.27540984,10.8 C3.118032,10.8 2.9680335,10.7704921 2.82540984,10.7114754 C2.68278617,10.6524587 2.55737759,10.573771 2.44918033,10.4754098 C2.34098307,10.3770487 2.25491835,10.2590171 2.19098361,10.1213115 C2.12704886,9.98360587 2.09508197,9.83606636 2.09508197,9.67868852 Z"/>
  </defs>
  <g fill="none" fill-rule="evenodd">
    <mask id="question-b" fill="#fff">
      <use xlink:href="#question-a"/>
    </mask>
    <g fill="currentColor" mask="url(#question-b)">
      <rect width="18" height="18"/>
    </g>
    <g mask="url(#question-b)">
      <g transform="translate(5.4 3.6)">
        <mask id="question-d" fill="#fff">
          <use xlink:href="#question-c"/>
        </mask>
        <use fill="#FFF" xlink:href="#question-c"/>
        <g mask="url(#question-d)">
          <rect width="18" height="18" fill="#FFF" transform="translate(-5.4 -3.6)"/>
        </g>
      </g>
    </g>
  </g>
</svg>
