<?xml version="1.0" encoding="utf-8"?>
<!-- Generator: Adobe Illustrator 24.2.1, SVG Export Plug-In . SVG Version: 6.00 Build 0)  -->
<svg viewBox="0 0 352.34 352.34" version="1.1" xmlns="http://www.w3.org/2000/svg" xmlns:xlink="http://www.w3.org/1999/xlink">
    <!-- Generator: Sketch 52.2 (67145) - http://www.bohemiancoding.com/sketch -->
    <title>Path02</title>
    <desc>Created with Sketch.</desc>
<defs>
  <path ref="heroSVG" id="path1" class="st0" d="M55.5,124.5S53,115,59,107A90.73,90.73,0,0,0,69,89c1-10,24.33-14.8,20.5-12.5a117.31,117.31,0,0,1-11,5c-4.69,2,3.5-15.5,16-23,4.62-2.77,10,0,13,5s1.5,4.5-4,8C98.44,74.72,104,66,115,66s17-1,24-5,41,2,40,23-19,28-29.5,13.5C142,87.08,126,83.79,157.38,69.1a10.8,10.8,0,0,1,10.16.51c3,1.81-22.36,4.67-4,16.89,9,6,4.63-16.25,6-15,4.12,3.76,6.42,17.87,3,23-2,3-12,6-19-4-6.1-8.71-1-22,13-33,0,0,6-4,11,3s5,19,13,25a59.86,59.86,0,0,1,6,7c2,3,12,15,5,22s-20,6-29,5-23,9-28,10-24,0-34-7-32-14-39-7c-6.56,6.56-22.79,12.25-9.14,30.23.91,1.2,3.58,18.37,12.14,15.77,15.89-4.83,24.77-5.15,25.25,7.7.75,20.3,12.23,18.73,15.75,14.3,16.8-21.18,2-20.47-2.74-9.28-2.26,5.28-6.84,2.59-7.39-.5-1.52-8.64,1.84-25.37,40.13-20.22,6.94.93,9,1,4,5s-8,2-8,2-4,1-2,6a15.91,15.91,0,0,1,1,9,2.19,2.19,0,0,1-3-1c-1-2-6-5-5,3s-1,15-3,11-4-12-5-5-3,16-4,13-6-9-7-6,0,11-2,11-3-9-5-8-3,11-3,11-4,1-4-2-14-33-17-33c-2,0,7.33,28.66,8,34,3,24,39,13,48-9s20-25,25-26,20-16,23-21,6-14,1-12-11,3-15,1-9-7-10,0-2,28-4,28-5-27-5-27-4-4-5,2-5,9-6,9c-3,0-5-15-9-7-3.26,6.51-5,7-5,7-1,0-2-10-2-10s-3-7-6,1a43.26,43.26,0,0,1-3,6c-1,0-3.44-13-6-13-4,0-7,11-8,11-2,0-4-12-4-12s.19-4.56-2-5c-5-1-6,17-8,17s-5-11-5-11-1-9-4-7-1,18-2,18c-2.24,0-4-12-8-11,0,0-2,1-1,5s4,17.76,4,20c0,1-16-21-12-27s16-12,24-11a163.68,163.68,0,0,1,35,9c13,5,25,5,34,1s31,1,35-2,17-5,15,4-5,30-19,37-28,11-34,22-34,41-53,32-13-19-13-19-1,11,1,17,10,9,20,8,35-8,42-22,17-25,26-29,27-10,31-31,8-21,13-17,20,26,18,64-8,57-10,55-4-16-4-27-6-56-13-47-16,28-34,34-19,9-11,9,28-7,35-16,11-1,7,6-21,20-32,22"/>
  <!--
  <path ref="heroSVG" id="path1" class="st0" d="M75.48,131.14c0,0-2.5-9.5,3.5-17.5s10-18,10-18c1-10,24.33-14.8,20.5-12.5c-2.5,1.5-7.5,3.5-11,5
		c-4.69,2.01,3.5-15.5,16-23c4.62-2.77,10,0,13,5c3,5,1.5,4.5-4,8c-5.06,3.22,0.5-5.5,11.5-5.5s17-1,24-5s41,2,40,23
		s-19,28-29.5,13.5c-7.89-10.9-25-14,12.5-30.5c0,0,23.8,7.56,10.5,27.5c-2,3-12,6-19-4c-6.1-8.71-1-22,13-33c0,0,6-4,11,3
		s5,19,13,25c0,0,4,4,6,7s12,15,5,22c-7,7-20,6-29,5s-23,9-28,10s-24,0-34-7c-10-7-32-14-39-7c-6.56,6.56-22.79,12.25-9.14,30.23
		c0.91,1.2,3.58,18.37,12.14,15.77c15.89-4.83,24.77-5.15,25.25,7.7c0.75,20.3,12.24,18.73,15.75,14.3
		c16.8-21.18,2.04-20.47-2.74-9.28c-2.26,5.28-6.84,2.59-7.39-0.5c-1.52-8.63,1.84-25.37,40.13-20.22c6.94,0.93,9,1,4,5s-8,2-8,2
		s-4,1-2,6s1,9,1,9s-2,1-3-1s-6-5-5,3s-1,15-3,11s-4-12-5-5s-3,16-4,13s-6-9-7-6s0,11-2,11s-3-9-5-8c-2,1-3,11-3,11s-4,1-4-2
		s-14-33-17-33c-2,0,7.33,28.66,8,34c3,24,39,13,48-9s20-25,25-26s20-16,23-21s6-14,1-12s-11,3-15,1s-9-7-10,0s-2,28-4,28s-5-27-5-27
		s-4-4-5,2s-5,9-6,9c-3,0-5-15-9-7c-3.26,6.51-5,7-5,7c-1,0-2-10-2-10s-3-7-6,1c-1.06,2.81-3,6-3,6c-1,0-3.44-13-6-13c-4,0-7,11-8,11
		c-2,0-4-12-4-12s0.19-4.56-2-5c-5-1-6,17-8,17s-5-11-5-11s-1-9-4-7s-1,18-2,18c-2.24,0-4-12-8-11c0,0-2,1-1,5s4,17.76,4,20
		c0,1-16-21-12-27s16-12,24-11s22,4,35,9s25,5,34,1s31,1,35-2s17-5,15,4s-5,30-19,37s-28,11-34,22s-34,41-53,32s-13-19-13-19
		s-1,11,1,17s10,9,20,8s35-8,42-22s17-25,26-29s27-10,31-31s8-21,13-17s20,26,18,64s-8,57-10,55c-2-2-4-16-4-27s-6-56-13-47
		s-16,28-34,34s-19,9-11,9s28-7,35-16s11-1,7,6s-21,20-32,22"/>
	<path class="st0" d="M173.86,78.44c0,0,26.62-0.3,18.62,22.7"/>
  -->
	<mask id="mask1"><use class="mask" xlink:href="#path1"/></mask>
</defs>
<use class="paths" xlink:href="#path1" mask="url(#mask1)" />
<!--
<path d="M171.16,86.18c0,0,2.82-6.54,7.82-3.54s15.09,2.96,12.55,19.48c0,0-9.53,7.15-17.04-3.67
	C174.49,98.45,169.34,92.72,171.16,86.18z"/>
<circle class="st1" cx="179.98" cy="85.64" r="4"/>
-->
</svg>
