<?xml version="1.0" encoding="utf-8"?>
<!-- Generator: Adobe Illustrator 24.2.1, SVG Export Plug-In . SVG Version: 6.00 Build 0)  -->
<svg version="1.1" id="Layer_1" xmlns="http://www.w3.org/2000/svg" xmlns:xlink="http://www.w3.org/1999/xlink" x="0px" y="0px"
	 viewBox="0 0 344 326" style="enable-background:new 0 0 344 326;" xml:space="preserve">
<style type="text/css">
	.st0{fill:none;stroke:#000000;stroke-linecap:round;stroke-linejoin:round;stroke-miterlimit:10;}
	.st1{fill:none;stroke:#000000;stroke-miterlimit:10;}
	.st2{fill:#FFFFFF;}
</style>
<path class="st0" d="M229.5,219.5c10,4,30.92-23.98,29-31c-3-11-38.89-2.16-36,0c4,3,30-20,30-27c0-14-25-19-24-23
	c0.63-2.54,18-7,18-13c0-4-12.04-9.2-17-11s-1.24-4.28-1.24-4.28s3.16,10.82,2.71,36.52c-0.45,25.7-6.31,28.41-4.51,50.5
	c0.43,5.22,1.78,14.09,5.05,20.26c10.57,19.93,27.07,32.95,20,28c-10-7-24.54-25.97-17-29c10.15-4.08,78-16,17.21,24.48
	c-12.03,8.01-84.66,22.73-54.21,8.52c15-7,17-24,21-12c8.59,25.76-39,30-57,29c-22.94-1.27,8-19-14.41-37.69
	c-19.66-16.4,38.33-36.52,35.62-30.66c-2.71,5.86-35.22,29.36-63.58,27.96c-8.3-0.41-10.82,0.9-13.98-6.76
	c-3.16-7.67,2.25-7.67,2.25-7.67c41.93-1.35,58.62-29.31,65.38-37.43c6.76-8.12,2.25-9.47,0.45-6.76
	c-1.8,2.71-18.12,17.1-30.75,27.02s-31.28,6.25-43,4s4.43-4.39,13-8s15.65-9.94,18.36-18.06c2.71-8.12,5.57-8.12,5.57-8.12
	c10.17,4.96,28.07,4.18,38.07-0.82c10.43-5.22,16.51-7.67,16-11c-0.1-0.63-4,3-20,10c-13.62,5.96-33.76,0.68-36.48,0.92
	c-4.96,0.45-29.52-9.92-51.4-3.61c-6.99,2.02-3.11,52.68-19.39-7.67c-4.5-16.69,6.76-40.58,10.37-51.4
	c3.61-10.82,31.11-20.29,77.56-32.01c34.83-8.79,58.25,10.06,67.79,20.04c3.18,3.33,5.58,13.76,5.56,17.73
	c-0.04,10.07-3.9,23.68-29,33c-17.12,6.36-40.11-10.09-37.68-1.42c0.68,2.42,13.15,4.22,25.91-3.68"/>
<path class="st1" d="M80.91,162.28c0,0,39.59,8.22,55.59,2.22"/>
<path class="st0" d="M169.74,89.08c1.06-0.6,17.05-14.06,26.18-4.89s15.83,25.07,5.48,37.3c-10.35,12.23-21.92,15.9-31.66,14.06
	C159.99,133.72,151.47,99.48,169.74,89.08z"/>
<path class="st0" d="M151.49,167.62c0,0-4.99,13.88-14.99,19.88"/>
<path d="M162.63,96.16c0,0,26.87-7.66,25.87,12.34s-10.78,28-17.5,26.5s-12-11-12-19S158.75,96.83,162.63,96.16z"/>
<ellipse transform="matrix(0.9643 -0.2648 0.2648 0.9643 -21.0399 51.4383)" class="st2" cx="180.25" cy="103.75" rx="8.25" ry="9.25"/>
<path class="st0" d="M81.3,162.63c0,0,1.26,13.87,3.35,13.87s6.86-17,8.86-10s3,9,3,9s1,2,2,0s6.5-12.28,5.25-10.14"/>
<path class="st0" d="M120.08,210.93c0,0-2.47-7.94-3.86-7.66c-1.39,0.28-2.56,10.85-4.72,7.02c-2.16-3.82-3.06-4.86-3.06-4.86
	s-0.9-1.04-1.33,0.27c-0.43,1.3-2.88,8.04-2.3,6.62"/>
</svg>
