<?xml version="1.0" encoding="iso-8859-1"?>
<!-- Generator: Adobe Illustrator 19.0.0, SVG Export Plug-In . SVG Version: 6.00 Build 0)  -->
<svg version="1.1" id="Capa_1" xmlns="http://www.w3.org/2000/svg" xmlns:xlink="http://www.w3.org/1999/xlink" x="0px" y="0px"
	 viewBox="0 0 53.94 53.94" style="enable-background:new 0 0 53.94 53.94;" xml:space="preserve">
<g>
	<g>
		<path d="M44.128,16.701c1.89,0.056,3.798-0.63,5.241-2.073c2.777-2.777,2.778-7.279,0-10.057c-2.778-2.778-7.281-2.777-10.057,0
			c-1.443,1.443-2.129,3.351-2.073,5.24L27.427,0L15.999,11.428l1.15,1.15c1.841-0.365,3.823,0.166,5.25,1.592
			c2.272,2.272,2.272,5.956-0.001,8.228c-2.272,2.272-5.956,2.272-8.228,0c-1.427-1.427-1.957-3.409-1.592-5.249l-1.15-1.15
			L0,27.428l9.812,9.811c-1.89-0.056-3.798,0.631-5.241,2.074c-2.777,2.777-2.778,7.279,0,10.057
			c2.778,2.777,7.28,2.777,10.057-0.001c1.443-1.443,2.13-3.351,2.073-5.24l9.812,9.811l11.428-11.428l-1.151-1.151
			c-1.84,0.364-3.823-0.165-5.25-1.592c-2.272-2.272-2.272-5.956,0-8.229c2.273-2.272,5.957-2.272,8.229,0
			c1.427,1.427,1.957,3.409,1.592,5.25l1.15,1.15L53.94,26.512L44.128,16.701z"/>
	</g>
</g>
<g>
</g>
<g>
</g>
<g>
</g>
<g>
</g>
<g>
</g>
<g>
</g>
<g>
</g>
<g>
</g>
<g>
</g>
<g>
</g>
<g>
</g>
<g>
</g>
<g>
</g>
<g>
</g>
<g>
</g>
</svg>
