<?xml version="1.0"?>
<svg xmlns="http://www.w3.org/2000/svg" height="512px" viewBox="0 0 448 448" width="512px"><g><path d="m304 208h16v8h-16zm0 0" data-original="#000000" class="active-path" data-old_color="#000000" fill="currentColor"/><path d="m128 184h16v8h-16zm0 0" data-original="#000000" class="active-path" data-old_color="#000000" fill="currentColor"/><path d="m128 208h16v8h-16zm0 0" data-original="#000000" class="active-path" data-old_color="#000000" fill="currentColor"/><path d="m168 104h112v32h-112zm0 0" data-original="#000000" class="active-path" data-old_color="#000000" fill="currentColor"/><path d="m336 224c0 4.417969-3.582031 8-8 8h-32c-4.417969 0-8-3.582031-8-8v-16h-128v16c0 4.417969-3.582031 8-8 8h-32c-4.417969 0-8-3.582031-8-8v-16h-32v136h288v-136h-32zm0 0" data-original="#000000" class="active-path" data-old_color="#000000" fill="currentColor"/><path d="m304 184h16v8h-16zm0 0" data-original="#000000" class="active-path" data-old_color="#000000" fill="currentColor"/><path d="m224 0c-123.710938 0-224 100.289062-224 224s100.289062 224 224 224 224-100.289062 224-224c-.140625-123.652344-100.347656-223.859375-224-224zm152 360h-304c-4.417969 0-8-3.582031-8-8v-208c0-4.417969 3.582031-8 8-8h80v-40c0-4.417969 3.582031-8 8-8h128c4.417969 0 8 3.582031 8 8v40h80c4.417969 0 8 3.582031 8 8v208c0 4.417969-3.582031 8-8 8zm0 0" data-original="#000000" class="active-path" data-old_color="#000000" fill="currentColor"/><path d="m80 192h32v-16c0-4.417969 3.582031-8 8-8h32c4.417969 0 8 3.582031 8 8v16h128v-16c0-4.417969 3.582031-8 8-8h32c4.417969 0 8 3.582031 8 8v16h32v-40h-288zm0 0" data-original="#000000" class="active-path" data-old_color="#000000" fill="currentColor"/></g> </svg>
